<?xml version="1.0" standalone="no"?>
<svg xmlns="http://www.w3.org/2000/svg" version="1.1" width="403" height="403">
	<!-- Created with https://api.qrserver.com (QR Code API, see goQR.me/api for information) -->
	<title>QR Code</title>
	<desc>https://www.denverbassmasters.com/join-now</desc>
	<rect style="fill:rgb(255, 255, 255);fill-opacity:1" x="0" y="0" width="403" height="403" />
	<g id="elements">
		<path style="fill:rgb(42, 64, 8)" d="M 13,13 l 13,0 0,13 -13,0 z M 26,13 l 13,0 0,13 -13,0 z M 39,13 l 13,0 0,13 -13,0 z M 52,13 l 13,0 0,13 -13,0 z M 65,13 l 13,0 0,13 -13,0 z M 78,13 l 13,0 0,13 -13,0 z M 91,13 l 13,0 0,13 -13,0 z M 143,13 l 13,0 0,13 -13,0 z M 169,13 l 13,0 0,13 -13,0 z M 182,13 l 13,0 0,13 -13,0 z M 221,13 l 13,0 0,13 -13,0 z M 234,13 l 13,0 0,13 -13,0 z M 247,13 l 13,0 0,13 -13,0 z M 260,13 l 13,0 0,13 -13,0 z M 273,13 l 13,0 0,13 -13,0 z M 299,13 l 13,0 0,13 -13,0 z M 312,13 l 13,0 0,13 -13,0 z M 325,13 l 13,0 0,13 -13,0 z M 338,13 l 13,0 0,13 -13,0 z M 351,13 l 13,0 0,13 -13,0 z M 364,13 l 13,0 0,13 -13,0 z M 377,13 l 13,0 0,13 -13,0 z M 13,26 l 13,0 0,13 -13,0 z M 91,26 l 13,0 0,13 -13,0 z M 117,26 l 13,0 0,13 -13,0 z M 143,26 l 13,0 0,13 -13,0 z M 208,26 l 13,0 0,13 -13,0 z M 221,26 l 13,0 0,13 -13,0 z M 273,26 l 13,0 0,13 -13,0 z M 299,26 l 13,0 0,13 -13,0 z M 377,26 l 13,0 0,13 -13,0 z M 13,39 l 13,0 0,13 -13,0 z M 39,39 l 13,0 0,13 -13,0 z M 52,39 l 13,0 0,13 -13,0 z M 65,39 l 13,0 0,13 -13,0 z M 91,39 l 13,0 0,13 -13,0 z M 169,39 l 13,0 0,13 -13,0 z M 195,39 l 13,0 0,13 -13,0 z M 221,39 l 13,0 0,13 -13,0 z M 260,39 l 13,0 0,13 -13,0 z M 299,39 l 13,0 0,13 -13,0 z M 325,39 l 13,0 0,13 -13,0 z M 338,39 l 13,0 0,13 -13,0 z M 351,39 l 13,0 0,13 -13,0 z M 377,39 l 13,0 0,13 -13,0 z M 13,52 l 13,0 0,13 -13,0 z M 39,52 l 13,0 0,13 -13,0 z M 52,52 l 13,0 0,13 -13,0 z M 65,52 l 13,0 0,13 -13,0 z M 91,52 l 13,0 0,13 -13,0 z M 117,52 l 13,0 0,13 -13,0 z M 130,52 l 13,0 0,13 -13,0 z M 143,52 l 13,0 0,13 -13,0 z M 169,52 l 13,0 0,13 -13,0 z M 182,52 l 13,0 0,13 -13,0 z M 195,52 l 13,0 0,13 -13,0 z M 234,52 l 13,0 0,13 -13,0 z M 273,52 l 13,0 0,13 -13,0 z M 299,52 l 13,0 0,13 -13,0 z M 325,52 l 13,0 0,13 -13,0 z M 338,52 l 13,0 0,13 -13,0 z M 351,52 l 13,0 0,13 -13,0 z M 377,52 l 13,0 0,13 -13,0 z M 13,65 l 13,0 0,13 -13,0 z M 39,65 l 13,0 0,13 -13,0 z M 52,65 l 13,0 0,13 -13,0 z M 65,65 l 13,0 0,13 -13,0 z M 91,65 l 13,0 0,13 -13,0 z M 130,65 l 13,0 0,13 -13,0 z M 182,65 l 13,0 0,13 -13,0 z M 221,65 l 13,0 0,13 -13,0 z M 247,65 l 13,0 0,13 -13,0 z M 260,65 l 13,0 0,13 -13,0 z M 273,65 l 13,0 0,13 -13,0 z M 299,65 l 13,0 0,13 -13,0 z M 325,65 l 13,0 0,13 -13,0 z M 338,65 l 13,0 0,13 -13,0 z M 351,65 l 13,0 0,13 -13,0 z M 377,65 l 13,0 0,13 -13,0 z M 13,78 l 13,0 0,13 -13,0 z M 91,78 l 13,0 0,13 -13,0 z M 117,78 l 13,0 0,13 -13,0 z M 130,78 l 13,0 0,13 -13,0 z M 156,78 l 13,0 0,13 -13,0 z M 169,78 l 13,0 0,13 -13,0 z M 182,78 l 13,0 0,13 -13,0 z M 195,78 l 13,0 0,13 -13,0 z M 208,78 l 13,0 0,13 -13,0 z M 247,78 l 13,0 0,13 -13,0 z M 273,78 l 13,0 0,13 -13,0 z M 299,78 l 13,0 0,13 -13,0 z M 377,78 l 13,0 0,13 -13,0 z M 13,91 l 13,0 0,13 -13,0 z M 26,91 l 13,0 0,13 -13,0 z M 39,91 l 13,0 0,13 -13,0 z M 52,91 l 13,0 0,13 -13,0 z M 65,91 l 13,0 0,13 -13,0 z M 78,91 l 13,0 0,13 -13,0 z M 91,91 l 13,0 0,13 -13,0 z M 117,91 l 13,0 0,13 -13,0 z M 143,91 l 13,0 0,13 -13,0 z M 169,91 l 13,0 0,13 -13,0 z M 195,91 l 13,0 0,13 -13,0 z M 221,91 l 13,0 0,13 -13,0 z M 247,91 l 13,0 0,13 -13,0 z M 273,91 l 13,0 0,13 -13,0 z M 299,91 l 13,0 0,13 -13,0 z M 312,91 l 13,0 0,13 -13,0 z M 325,91 l 13,0 0,13 -13,0 z M 338,91 l 13,0 0,13 -13,0 z M 351,91 l 13,0 0,13 -13,0 z M 364,91 l 13,0 0,13 -13,0 z M 377,91 l 13,0 0,13 -13,0 z M 130,104 l 13,0 0,13 -13,0 z M 143,104 l 13,0 0,13 -13,0 z M 156,104 l 13,0 0,13 -13,0 z M 260,104 l 13,0 0,13 -13,0 z M 13,117 l 13,0 0,13 -13,0 z M 26,117 l 13,0 0,13 -13,0 z M 39,117 l 13,0 0,13 -13,0 z M 52,117 l 13,0 0,13 -13,0 z M 65,117 l 13,0 0,13 -13,0 z M 91,117 l 13,0 0,13 -13,0 z M 104,117 l 13,0 0,13 -13,0 z M 117,117 l 13,0 0,13 -13,0 z M 130,117 l 13,0 0,13 -13,0 z M 156,117 l 13,0 0,13 -13,0 z M 182,117 l 13,0 0,13 -13,0 z M 234,117 l 13,0 0,13 -13,0 z M 273,117 l 13,0 0,13 -13,0 z M 286,117 l 13,0 0,13 -13,0 z M 312,117 l 13,0 0,13 -13,0 z M 338,117 l 13,0 0,13 -13,0 z M 364,117 l 13,0 0,13 -13,0 z M 52,130 l 13,0 0,13 -13,0 z M 65,130 l 13,0 0,13 -13,0 z M 117,130 l 13,0 0,13 -13,0 z M 143,130 l 13,0 0,13 -13,0 z M 169,130 l 13,0 0,13 -13,0 z M 182,130 l 13,0 0,13 -13,0 z M 221,130 l 13,0 0,13 -13,0 z M 260,130 l 13,0 0,13 -13,0 z M 273,130 l 13,0 0,13 -13,0 z M 286,130 l 13,0 0,13 -13,0 z M 299,130 l 13,0 0,13 -13,0 z M 312,130 l 13,0 0,13 -13,0 z M 325,130 l 13,0 0,13 -13,0 z M 377,130 l 13,0 0,13 -13,0 z M 52,143 l 13,0 0,13 -13,0 z M 65,143 l 13,0 0,13 -13,0 z M 91,143 l 13,0 0,13 -13,0 z M 104,143 l 13,0 0,13 -13,0 z M 143,143 l 13,0 0,13 -13,0 z M 195,143 l 13,0 0,13 -13,0 z M 208,143 l 13,0 0,13 -13,0 z M 221,143 l 13,0 0,13 -13,0 z M 234,143 l 13,0 0,13 -13,0 z M 247,143 l 13,0 0,13 -13,0 z M 273,143 l 13,0 0,13 -13,0 z M 13,156 l 13,0 0,13 -13,0 z M 26,156 l 13,0 0,13 -13,0 z M 39,156 l 13,0 0,13 -13,0 z M 169,156 l 13,0 0,13 -13,0 z M 195,156 l 13,0 0,13 -13,0 z M 221,156 l 13,0 0,13 -13,0 z M 286,156 l 13,0 0,13 -13,0 z M 312,156 l 13,0 0,13 -13,0 z M 338,156 l 13,0 0,13 -13,0 z M 364,156 l 13,0 0,13 -13,0 z M 13,169 l 13,0 0,13 -13,0 z M 26,169 l 13,0 0,13 -13,0 z M 52,169 l 13,0 0,13 -13,0 z M 65,169 l 13,0 0,13 -13,0 z M 91,169 l 13,0 0,13 -13,0 z M 104,169 l 13,0 0,13 -13,0 z M 117,169 l 13,0 0,13 -13,0 z M 130,169 l 13,0 0,13 -13,0 z M 143,169 l 13,0 0,13 -13,0 z M 169,169 l 13,0 0,13 -13,0 z M 182,169 l 13,0 0,13 -13,0 z M 195,169 l 13,0 0,13 -13,0 z M 234,169 l 13,0 0,13 -13,0 z M 338,169 l 13,0 0,13 -13,0 z M 351,169 l 13,0 0,13 -13,0 z M 13,182 l 13,0 0,13 -13,0 z M 26,182 l 13,0 0,13 -13,0 z M 52,182 l 13,0 0,13 -13,0 z M 65,182 l 13,0 0,13 -13,0 z M 104,182 l 13,0 0,13 -13,0 z M 117,182 l 13,0 0,13 -13,0 z M 182,182 l 13,0 0,13 -13,0 z M 260,182 l 13,0 0,13 -13,0 z M 273,182 l 13,0 0,13 -13,0 z M 286,182 l 13,0 0,13 -13,0 z M 299,182 l 13,0 0,13 -13,0 z M 325,182 l 13,0 0,13 -13,0 z M 377,182 l 13,0 0,13 -13,0 z M 26,195 l 13,0 0,13 -13,0 z M 39,195 l 13,0 0,13 -13,0 z M 52,195 l 13,0 0,13 -13,0 z M 65,195 l 13,0 0,13 -13,0 z M 91,195 l 13,0 0,13 -13,0 z M 104,195 l 13,0 0,13 -13,0 z M 117,195 l 13,0 0,13 -13,0 z M 143,195 l 13,0 0,13 -13,0 z M 156,195 l 13,0 0,13 -13,0 z M 169,195 l 13,0 0,13 -13,0 z M 182,195 l 13,0 0,13 -13,0 z M 195,195 l 13,0 0,13 -13,0 z M 208,195 l 13,0 0,13 -13,0 z M 221,195 l 13,0 0,13 -13,0 z M 312,195 l 13,0 0,13 -13,0 z M 338,195 l 13,0 0,13 -13,0 z M 351,195 l 13,0 0,13 -13,0 z M 39,208 l 13,0 0,13 -13,0 z M 104,208 l 13,0 0,13 -13,0 z M 130,208 l 13,0 0,13 -13,0 z M 156,208 l 13,0 0,13 -13,0 z M 208,208 l 13,0 0,13 -13,0 z M 221,208 l 13,0 0,13 -13,0 z M 247,208 l 13,0 0,13 -13,0 z M 260,208 l 13,0 0,13 -13,0 z M 312,208 l 13,0 0,13 -13,0 z M 325,208 l 13,0 0,13 -13,0 z M 364,208 l 13,0 0,13 -13,0 z M 26,221 l 13,0 0,13 -13,0 z M 52,221 l 13,0 0,13 -13,0 z M 65,221 l 13,0 0,13 -13,0 z M 78,221 l 13,0 0,13 -13,0 z M 91,221 l 13,0 0,13 -13,0 z M 117,221 l 13,0 0,13 -13,0 z M 156,221 l 13,0 0,13 -13,0 z M 182,221 l 13,0 0,13 -13,0 z M 195,221 l 13,0 0,13 -13,0 z M 234,221 l 13,0 0,13 -13,0 z M 312,221 l 13,0 0,13 -13,0 z M 338,221 l 13,0 0,13 -13,0 z M 351,221 l 13,0 0,13 -13,0 z M 13,234 l 13,0 0,13 -13,0 z M 78,234 l 13,0 0,13 -13,0 z M 104,234 l 13,0 0,13 -13,0 z M 130,234 l 13,0 0,13 -13,0 z M 143,234 l 13,0 0,13 -13,0 z M 169,234 l 13,0 0,13 -13,0 z M 182,234 l 13,0 0,13 -13,0 z M 221,234 l 13,0 0,13 -13,0 z M 247,234 l 13,0 0,13 -13,0 z M 260,234 l 13,0 0,13 -13,0 z M 273,234 l 13,0 0,13 -13,0 z M 286,234 l 13,0 0,13 -13,0 z M 299,234 l 13,0 0,13 -13,0 z M 312,234 l 13,0 0,13 -13,0 z M 325,234 l 13,0 0,13 -13,0 z M 351,234 l 13,0 0,13 -13,0 z M 377,234 l 13,0 0,13 -13,0 z M 13,247 l 13,0 0,13 -13,0 z M 78,247 l 13,0 0,13 -13,0 z M 91,247 l 13,0 0,13 -13,0 z M 130,247 l 13,0 0,13 -13,0 z M 182,247 l 13,0 0,13 -13,0 z M 195,247 l 13,0 0,13 -13,0 z M 208,247 l 13,0 0,13 -13,0 z M 221,247 l 13,0 0,13 -13,0 z M 299,247 l 13,0 0,13 -13,0 z M 312,247 l 13,0 0,13 -13,0 z M 351,247 l 13,0 0,13 -13,0 z M 13,260 l 13,0 0,13 -13,0 z M 52,260 l 13,0 0,13 -13,0 z M 78,260 l 13,0 0,13 -13,0 z M 104,260 l 13,0 0,13 -13,0 z M 117,260 l 13,0 0,13 -13,0 z M 130,260 l 13,0 0,13 -13,0 z M 169,260 l 13,0 0,13 -13,0 z M 195,260 l 13,0 0,13 -13,0 z M 221,260 l 13,0 0,13 -13,0 z M 260,260 l 13,0 0,13 -13,0 z M 286,260 l 13,0 0,13 -13,0 z M 299,260 l 13,0 0,13 -13,0 z M 312,260 l 13,0 0,13 -13,0 z M 325,260 l 13,0 0,13 -13,0 z M 364,260 l 13,0 0,13 -13,0 z M 13,273 l 13,0 0,13 -13,0 z M 39,273 l 13,0 0,13 -13,0 z M 65,273 l 13,0 0,13 -13,0 z M 78,273 l 13,0 0,13 -13,0 z M 91,273 l 13,0 0,13 -13,0 z M 104,273 l 13,0 0,13 -13,0 z M 117,273 l 13,0 0,13 -13,0 z M 130,273 l 13,0 0,13 -13,0 z M 143,273 l 13,0 0,13 -13,0 z M 169,273 l 13,0 0,13 -13,0 z M 182,273 l 13,0 0,13 -13,0 z M 195,273 l 13,0 0,13 -13,0 z M 234,273 l 13,0 0,13 -13,0 z M 273,273 l 13,0 0,13 -13,0 z M 286,273 l 13,0 0,13 -13,0 z M 299,273 l 13,0 0,13 -13,0 z M 312,273 l 13,0 0,13 -13,0 z M 325,273 l 13,0 0,13 -13,0 z M 351,273 l 13,0 0,13 -13,0 z M 364,273 l 13,0 0,13 -13,0 z M 377,273 l 13,0 0,13 -13,0 z M 117,286 l 13,0 0,13 -13,0 z M 195,286 l 13,0 0,13 -13,0 z M 221,286 l 13,0 0,13 -13,0 z M 260,286 l 13,0 0,13 -13,0 z M 273,286 l 13,0 0,13 -13,0 z M 325,286 l 13,0 0,13 -13,0 z M 338,286 l 13,0 0,13 -13,0 z M 351,286 l 13,0 0,13 -13,0 z M 364,286 l 13,0 0,13 -13,0 z M 377,286 l 13,0 0,13 -13,0 z M 13,299 l 13,0 0,13 -13,0 z M 26,299 l 13,0 0,13 -13,0 z M 39,299 l 13,0 0,13 -13,0 z M 52,299 l 13,0 0,13 -13,0 z M 65,299 l 13,0 0,13 -13,0 z M 78,299 l 13,0 0,13 -13,0 z M 91,299 l 13,0 0,13 -13,0 z M 117,299 l 13,0 0,13 -13,0 z M 156,299 l 13,0 0,13 -13,0 z M 169,299 l 13,0 0,13 -13,0 z M 182,299 l 13,0 0,13 -13,0 z M 195,299 l 13,0 0,13 -13,0 z M 208,299 l 13,0 0,13 -13,0 z M 221,299 l 13,0 0,13 -13,0 z M 234,299 l 13,0 0,13 -13,0 z M 247,299 l 13,0 0,13 -13,0 z M 260,299 l 13,0 0,13 -13,0 z M 273,299 l 13,0 0,13 -13,0 z M 299,299 l 13,0 0,13 -13,0 z M 325,299 l 13,0 0,13 -13,0 z M 338,299 l 13,0 0,13 -13,0 z M 351,299 l 13,0 0,13 -13,0 z M 13,312 l 13,0 0,13 -13,0 z M 91,312 l 13,0 0,13 -13,0 z M 130,312 l 13,0 0,13 -13,0 z M 156,312 l 13,0 0,13 -13,0 z M 195,312 l 13,0 0,13 -13,0 z M 247,312 l 13,0 0,13 -13,0 z M 260,312 l 13,0 0,13 -13,0 z M 273,312 l 13,0 0,13 -13,0 z M 325,312 l 13,0 0,13 -13,0 z M 364,312 l 13,0 0,13 -13,0 z M 377,312 l 13,0 0,13 -13,0 z M 13,325 l 13,0 0,13 -13,0 z M 39,325 l 13,0 0,13 -13,0 z M 52,325 l 13,0 0,13 -13,0 z M 65,325 l 13,0 0,13 -13,0 z M 91,325 l 13,0 0,13 -13,0 z M 117,325 l 13,0 0,13 -13,0 z M 130,325 l 13,0 0,13 -13,0 z M 156,325 l 13,0 0,13 -13,0 z M 208,325 l 13,0 0,13 -13,0 z M 234,325 l 13,0 0,13 -13,0 z M 273,325 l 13,0 0,13 -13,0 z M 286,325 l 13,0 0,13 -13,0 z M 299,325 l 13,0 0,13 -13,0 z M 312,325 l 13,0 0,13 -13,0 z M 325,325 l 13,0 0,13 -13,0 z M 351,325 l 13,0 0,13 -13,0 z M 364,325 l 13,0 0,13 -13,0 z M 377,325 l 13,0 0,13 -13,0 z M 13,338 l 13,0 0,13 -13,0 z M 39,338 l 13,0 0,13 -13,0 z M 52,338 l 13,0 0,13 -13,0 z M 65,338 l 13,0 0,13 -13,0 z M 91,338 l 13,0 0,13 -13,0 z M 117,338 l 13,0 0,13 -13,0 z M 143,338 l 13,0 0,13 -13,0 z M 169,338 l 13,0 0,13 -13,0 z M 182,338 l 13,0 0,13 -13,0 z M 221,338 l 13,0 0,13 -13,0 z M 260,338 l 13,0 0,13 -13,0 z M 312,338 l 13,0 0,13 -13,0 z M 338,338 l 13,0 0,13 -13,0 z M 351,338 l 13,0 0,13 -13,0 z M 364,338 l 13,0 0,13 -13,0 z M 377,338 l 13,0 0,13 -13,0 z M 13,351 l 13,0 0,13 -13,0 z M 39,351 l 13,0 0,13 -13,0 z M 52,351 l 13,0 0,13 -13,0 z M 65,351 l 13,0 0,13 -13,0 z M 91,351 l 13,0 0,13 -13,0 z M 117,351 l 13,0 0,13 -13,0 z M 130,351 l 13,0 0,13 -13,0 z M 143,351 l 13,0 0,13 -13,0 z M 182,351 l 13,0 0,13 -13,0 z M 195,351 l 13,0 0,13 -13,0 z M 208,351 l 13,0 0,13 -13,0 z M 234,351 l 13,0 0,13 -13,0 z M 247,351 l 13,0 0,13 -13,0 z M 260,351 l 13,0 0,13 -13,0 z M 299,351 l 13,0 0,13 -13,0 z M 312,351 l 13,0 0,13 -13,0 z M 325,351 l 13,0 0,13 -13,0 z M 338,351 l 13,0 0,13 -13,0 z M 351,351 l 13,0 0,13 -13,0 z M 364,351 l 13,0 0,13 -13,0 z M 13,364 l 13,0 0,13 -13,0 z M 91,364 l 13,0 0,13 -13,0 z M 117,364 l 13,0 0,13 -13,0 z M 130,364 l 13,0 0,13 -13,0 z M 169,364 l 13,0 0,13 -13,0 z M 182,364 l 13,0 0,13 -13,0 z M 221,364 l 13,0 0,13 -13,0 z M 273,364 l 13,0 0,13 -13,0 z M 312,364 l 13,0 0,13 -13,0 z M 338,364 l 13,0 0,13 -13,0 z M 364,364 l 13,0 0,13 -13,0 z M 13,377 l 13,0 0,13 -13,0 z M 26,377 l 13,0 0,13 -13,0 z M 39,377 l 13,0 0,13 -13,0 z M 52,377 l 13,0 0,13 -13,0 z M 65,377 l 13,0 0,13 -13,0 z M 78,377 l 13,0 0,13 -13,0 z M 91,377 l 13,0 0,13 -13,0 z M 117,377 l 13,0 0,13 -13,0 z M 130,377 l 13,0 0,13 -13,0 z M 143,377 l 13,0 0,13 -13,0 z M 169,377 l 13,0 0,13 -13,0 z M 195,377 l 13,0 0,13 -13,0 z M 234,377 l 13,0 0,13 -13,0 z M 247,377 l 13,0 0,13 -13,0 z M 260,377 l 13,0 0,13 -13,0 z M 286,377 l 13,0 0,13 -13,0 z M 299,377 l 13,0 0,13 -13,0 z M 312,377 l 13,0 0,13 -13,0 z M 325,377 l 13,0 0,13 -13,0 z M 338,377 l 13,0 0,13 -13,0 z M 351,377 l 13,0 0,13 -13,0 z " />
	</g>
</svg>
