<?xml version="1.0" standalone="no"?>
<svg xmlns="http://www.w3.org/2000/svg" version="1.1" width="486" height="486">
	<!-- Created with https://api.qrserver.com (QR Code API, see goQR.me/api for information) -->
	<title>QR Code</title>
	<desc>https://eepurl.com/jAjfYY</desc>
	<rect style="fill:rgb(255, 255, 255);fill-opacity:1" x="0" y="0" width="486" height="486" />
	<g id="elements">
		<path style="fill:rgb(42, 64, 8)" d="M 18,18 l 18,0 0,18 -18,0 z M 36,18 l 18,0 0,18 -18,0 z M 54,18 l 18,0 0,18 -18,0 z M 72,18 l 18,0 0,18 -18,0 z M 90,18 l 18,0 0,18 -18,0 z M 108,18 l 18,0 0,18 -18,0 z M 126,18 l 18,0 0,18 -18,0 z M 198,18 l 18,0 0,18 -18,0 z M 234,18 l 18,0 0,18 -18,0 z M 252,18 l 18,0 0,18 -18,0 z M 306,18 l 18,0 0,18 -18,0 z M 342,18 l 18,0 0,18 -18,0 z M 360,18 l 18,0 0,18 -18,0 z M 378,18 l 18,0 0,18 -18,0 z M 396,18 l 18,0 0,18 -18,0 z M 414,18 l 18,0 0,18 -18,0 z M 432,18 l 18,0 0,18 -18,0 z M 450,18 l 18,0 0,18 -18,0 z M 18,36 l 18,0 0,18 -18,0 z M 126,36 l 18,0 0,18 -18,0 z M 162,36 l 18,0 0,18 -18,0 z M 198,36 l 18,0 0,18 -18,0 z M 270,36 l 18,0 0,18 -18,0 z M 288,36 l 18,0 0,18 -18,0 z M 306,36 l 18,0 0,18 -18,0 z M 342,36 l 18,0 0,18 -18,0 z M 450,36 l 18,0 0,18 -18,0 z M 18,54 l 18,0 0,18 -18,0 z M 54,54 l 18,0 0,18 -18,0 z M 72,54 l 18,0 0,18 -18,0 z M 90,54 l 18,0 0,18 -18,0 z M 126,54 l 18,0 0,18 -18,0 z M 234,54 l 18,0 0,18 -18,0 z M 270,54 l 18,0 0,18 -18,0 z M 306,54 l 18,0 0,18 -18,0 z M 342,54 l 18,0 0,18 -18,0 z M 378,54 l 18,0 0,18 -18,0 z M 396,54 l 18,0 0,18 -18,0 z M 414,54 l 18,0 0,18 -18,0 z M 450,54 l 18,0 0,18 -18,0 z M 18,72 l 18,0 0,18 -18,0 z M 54,72 l 18,0 0,18 -18,0 z M 72,72 l 18,0 0,18 -18,0 z M 90,72 l 18,0 0,18 -18,0 z M 126,72 l 18,0 0,18 -18,0 z M 162,72 l 18,0 0,18 -18,0 z M 180,72 l 18,0 0,18 -18,0 z M 198,72 l 18,0 0,18 -18,0 z M 234,72 l 18,0 0,18 -18,0 z M 252,72 l 18,0 0,18 -18,0 z M 342,72 l 18,0 0,18 -18,0 z M 378,72 l 18,0 0,18 -18,0 z M 396,72 l 18,0 0,18 -18,0 z M 414,72 l 18,0 0,18 -18,0 z M 450,72 l 18,0 0,18 -18,0 z M 18,90 l 18,0 0,18 -18,0 z M 54,90 l 18,0 0,18 -18,0 z M 72,90 l 18,0 0,18 -18,0 z M 90,90 l 18,0 0,18 -18,0 z M 126,90 l 18,0 0,18 -18,0 z M 180,90 l 18,0 0,18 -18,0 z M 252,90 l 18,0 0,18 -18,0 z M 306,90 l 18,0 0,18 -18,0 z M 342,90 l 18,0 0,18 -18,0 z M 378,90 l 18,0 0,18 -18,0 z M 396,90 l 18,0 0,18 -18,0 z M 414,90 l 18,0 0,18 -18,0 z M 450,90 l 18,0 0,18 -18,0 z M 18,108 l 18,0 0,18 -18,0 z M 126,108 l 18,0 0,18 -18,0 z M 162,108 l 18,0 0,18 -18,0 z M 180,108 l 18,0 0,18 -18,0 z M 216,108 l 18,0 0,18 -18,0 z M 234,108 l 18,0 0,18 -18,0 z M 252,108 l 18,0 0,18 -18,0 z M 270,108 l 18,0 0,18 -18,0 z M 288,108 l 18,0 0,18 -18,0 z M 306,108 l 18,0 0,18 -18,0 z M 342,108 l 18,0 0,18 -18,0 z M 450,108 l 18,0 0,18 -18,0 z M 18,126 l 18,0 0,18 -18,0 z M 36,126 l 18,0 0,18 -18,0 z M 54,126 l 18,0 0,18 -18,0 z M 72,126 l 18,0 0,18 -18,0 z M 90,126 l 18,0 0,18 -18,0 z M 108,126 l 18,0 0,18 -18,0 z M 126,126 l 18,0 0,18 -18,0 z M 162,126 l 18,0 0,18 -18,0 z M 198,126 l 18,0 0,18 -18,0 z M 234,126 l 18,0 0,18 -18,0 z M 270,126 l 18,0 0,18 -18,0 z M 306,126 l 18,0 0,18 -18,0 z M 342,126 l 18,0 0,18 -18,0 z M 360,126 l 18,0 0,18 -18,0 z M 378,126 l 18,0 0,18 -18,0 z M 396,126 l 18,0 0,18 -18,0 z M 414,126 l 18,0 0,18 -18,0 z M 432,126 l 18,0 0,18 -18,0 z M 450,126 l 18,0 0,18 -18,0 z M 180,144 l 18,0 0,18 -18,0 z M 198,144 l 18,0 0,18 -18,0 z M 216,144 l 18,0 0,18 -18,0 z M 270,144 l 18,0 0,18 -18,0 z M 18,162 l 18,0 0,18 -18,0 z M 36,162 l 18,0 0,18 -18,0 z M 54,162 l 18,0 0,18 -18,0 z M 72,162 l 18,0 0,18 -18,0 z M 90,162 l 18,0 0,18 -18,0 z M 126,162 l 18,0 0,18 -18,0 z M 144,162 l 18,0 0,18 -18,0 z M 162,162 l 18,0 0,18 -18,0 z M 180,162 l 18,0 0,18 -18,0 z M 216,162 l 18,0 0,18 -18,0 z M 252,162 l 18,0 0,18 -18,0 z M 270,162 l 18,0 0,18 -18,0 z M 288,162 l 18,0 0,18 -18,0 z M 324,162 l 18,0 0,18 -18,0 z M 360,162 l 18,0 0,18 -18,0 z M 396,162 l 18,0 0,18 -18,0 z M 432,162 l 18,0 0,18 -18,0 z M 108,180 l 18,0 0,18 -18,0 z M 198,180 l 18,0 0,18 -18,0 z M 234,180 l 18,0 0,18 -18,0 z M 252,180 l 18,0 0,18 -18,0 z M 306,180 l 18,0 0,18 -18,0 z M 360,180 l 18,0 0,18 -18,0 z M 432,180 l 18,0 0,18 -18,0 z M 18,198 l 18,0 0,18 -18,0 z M 54,198 l 18,0 0,18 -18,0 z M 108,198 l 18,0 0,18 -18,0 z M 126,198 l 18,0 0,18 -18,0 z M 144,198 l 18,0 0,18 -18,0 z M 198,198 l 18,0 0,18 -18,0 z M 252,198 l 18,0 0,18 -18,0 z M 288,198 l 18,0 0,18 -18,0 z M 324,198 l 18,0 0,18 -18,0 z M 342,198 l 18,0 0,18 -18,0 z M 360,198 l 18,0 0,18 -18,0 z M 396,198 l 18,0 0,18 -18,0 z M 432,198 l 18,0 0,18 -18,0 z M 450,198 l 18,0 0,18 -18,0 z M 18,216 l 18,0 0,18 -18,0 z M 36,216 l 18,0 0,18 -18,0 z M 72,216 l 18,0 0,18 -18,0 z M 234,216 l 18,0 0,18 -18,0 z M 306,216 l 18,0 0,18 -18,0 z M 324,216 l 18,0 0,18 -18,0 z M 342,216 l 18,0 0,18 -18,0 z M 360,216 l 18,0 0,18 -18,0 z M 450,216 l 18,0 0,18 -18,0 z M 54,234 l 18,0 0,18 -18,0 z M 90,234 l 18,0 0,18 -18,0 z M 126,234 l 18,0 0,18 -18,0 z M 144,234 l 18,0 0,18 -18,0 z M 180,234 l 18,0 0,18 -18,0 z M 198,234 l 18,0 0,18 -18,0 z M 234,234 l 18,0 0,18 -18,0 z M 270,234 l 18,0 0,18 -18,0 z M 324,234 l 18,0 0,18 -18,0 z M 342,234 l 18,0 0,18 -18,0 z M 378,234 l 18,0 0,18 -18,0 z M 414,234 l 18,0 0,18 -18,0 z M 432,234 l 18,0 0,18 -18,0 z M 450,234 l 18,0 0,18 -18,0 z M 18,252 l 18,0 0,18 -18,0 z M 54,252 l 18,0 0,18 -18,0 z M 108,252 l 18,0 0,18 -18,0 z M 162,252 l 18,0 0,18 -18,0 z M 180,252 l 18,0 0,18 -18,0 z M 324,252 l 18,0 0,18 -18,0 z M 360,252 l 18,0 0,18 -18,0 z M 396,252 l 18,0 0,18 -18,0 z M 432,252 l 18,0 0,18 -18,0 z M 18,270 l 18,0 0,18 -18,0 z M 54,270 l 18,0 0,18 -18,0 z M 72,270 l 18,0 0,18 -18,0 z M 126,270 l 18,0 0,18 -18,0 z M 162,270 l 18,0 0,18 -18,0 z M 216,270 l 18,0 0,18 -18,0 z M 234,270 l 18,0 0,18 -18,0 z M 288,270 l 18,0 0,18 -18,0 z M 342,270 l 18,0 0,18 -18,0 z M 360,270 l 18,0 0,18 -18,0 z M 378,270 l 18,0 0,18 -18,0 z M 396,270 l 18,0 0,18 -18,0 z M 432,270 l 18,0 0,18 -18,0 z M 450,270 l 18,0 0,18 -18,0 z M 18,288 l 18,0 0,18 -18,0 z M 162,288 l 18,0 0,18 -18,0 z M 180,288 l 18,0 0,18 -18,0 z M 198,288 l 18,0 0,18 -18,0 z M 216,288 l 18,0 0,18 -18,0 z M 270,288 l 18,0 0,18 -18,0 z M 288,288 l 18,0 0,18 -18,0 z M 306,288 l 18,0 0,18 -18,0 z M 342,288 l 18,0 0,18 -18,0 z M 360,288 l 18,0 0,18 -18,0 z M 378,288 l 18,0 0,18 -18,0 z M 450,288 l 18,0 0,18 -18,0 z M 18,306 l 18,0 0,18 -18,0 z M 54,306 l 18,0 0,18 -18,0 z M 72,306 l 18,0 0,18 -18,0 z M 126,306 l 18,0 0,18 -18,0 z M 180,306 l 18,0 0,18 -18,0 z M 198,306 l 18,0 0,18 -18,0 z M 216,306 l 18,0 0,18 -18,0 z M 234,306 l 18,0 0,18 -18,0 z M 252,306 l 18,0 0,18 -18,0 z M 270,306 l 18,0 0,18 -18,0 z M 306,306 l 18,0 0,18 -18,0 z M 324,306 l 18,0 0,18 -18,0 z M 342,306 l 18,0 0,18 -18,0 z M 360,306 l 18,0 0,18 -18,0 z M 378,306 l 18,0 0,18 -18,0 z M 414,306 l 18,0 0,18 -18,0 z M 162,324 l 18,0 0,18 -18,0 z M 180,324 l 18,0 0,18 -18,0 z M 234,324 l 18,0 0,18 -18,0 z M 252,324 l 18,0 0,18 -18,0 z M 288,324 l 18,0 0,18 -18,0 z M 306,324 l 18,0 0,18 -18,0 z M 378,324 l 18,0 0,18 -18,0 z M 396,324 l 18,0 0,18 -18,0 z M 18,342 l 18,0 0,18 -18,0 z M 36,342 l 18,0 0,18 -18,0 z M 54,342 l 18,0 0,18 -18,0 z M 72,342 l 18,0 0,18 -18,0 z M 90,342 l 18,0 0,18 -18,0 z M 108,342 l 18,0 0,18 -18,0 z M 126,342 l 18,0 0,18 -18,0 z M 162,342 l 18,0 0,18 -18,0 z M 180,342 l 18,0 0,18 -18,0 z M 198,342 l 18,0 0,18 -18,0 z M 252,342 l 18,0 0,18 -18,0 z M 306,342 l 18,0 0,18 -18,0 z M 342,342 l 18,0 0,18 -18,0 z M 378,342 l 18,0 0,18 -18,0 z M 414,342 l 18,0 0,18 -18,0 z M 432,342 l 18,0 0,18 -18,0 z M 450,342 l 18,0 0,18 -18,0 z M 18,360 l 18,0 0,18 -18,0 z M 126,360 l 18,0 0,18 -18,0 z M 180,360 l 18,0 0,18 -18,0 z M 198,360 l 18,0 0,18 -18,0 z M 234,360 l 18,0 0,18 -18,0 z M 306,360 l 18,0 0,18 -18,0 z M 378,360 l 18,0 0,18 -18,0 z M 396,360 l 18,0 0,18 -18,0 z M 432,360 l 18,0 0,18 -18,0 z M 450,360 l 18,0 0,18 -18,0 z M 18,378 l 18,0 0,18 -18,0 z M 54,378 l 18,0 0,18 -18,0 z M 72,378 l 18,0 0,18 -18,0 z M 90,378 l 18,0 0,18 -18,0 z M 126,378 l 18,0 0,18 -18,0 z M 162,378 l 18,0 0,18 -18,0 z M 216,378 l 18,0 0,18 -18,0 z M 252,378 l 18,0 0,18 -18,0 z M 270,378 l 18,0 0,18 -18,0 z M 288,378 l 18,0 0,18 -18,0 z M 306,378 l 18,0 0,18 -18,0 z M 324,378 l 18,0 0,18 -18,0 z M 342,378 l 18,0 0,18 -18,0 z M 360,378 l 18,0 0,18 -18,0 z M 378,378 l 18,0 0,18 -18,0 z M 414,378 l 18,0 0,18 -18,0 z M 18,396 l 18,0 0,18 -18,0 z M 54,396 l 18,0 0,18 -18,0 z M 72,396 l 18,0 0,18 -18,0 z M 90,396 l 18,0 0,18 -18,0 z M 126,396 l 18,0 0,18 -18,0 z M 162,396 l 18,0 0,18 -18,0 z M 180,396 l 18,0 0,18 -18,0 z M 198,396 l 18,0 0,18 -18,0 z M 288,396 l 18,0 0,18 -18,0 z M 306,396 l 18,0 0,18 -18,0 z M 324,396 l 18,0 0,18 -18,0 z M 342,396 l 18,0 0,18 -18,0 z M 378,396 l 18,0 0,18 -18,0 z M 396,396 l 18,0 0,18 -18,0 z M 414,396 l 18,0 0,18 -18,0 z M 432,396 l 18,0 0,18 -18,0 z M 450,396 l 18,0 0,18 -18,0 z M 18,414 l 18,0 0,18 -18,0 z M 54,414 l 18,0 0,18 -18,0 z M 72,414 l 18,0 0,18 -18,0 z M 90,414 l 18,0 0,18 -18,0 z M 126,414 l 18,0 0,18 -18,0 z M 162,414 l 18,0 0,18 -18,0 z M 252,414 l 18,0 0,18 -18,0 z M 270,414 l 18,0 0,18 -18,0 z M 288,414 l 18,0 0,18 -18,0 z M 324,414 l 18,0 0,18 -18,0 z M 396,414 l 18,0 0,18 -18,0 z M 414,414 l 18,0 0,18 -18,0 z M 450,414 l 18,0 0,18 -18,0 z M 18,432 l 18,0 0,18 -18,0 z M 126,432 l 18,0 0,18 -18,0 z M 162,432 l 18,0 0,18 -18,0 z M 234,432 l 18,0 0,18 -18,0 z M 306,432 l 18,0 0,18 -18,0 z M 324,432 l 18,0 0,18 -18,0 z M 342,432 l 18,0 0,18 -18,0 z M 360,432 l 18,0 0,18 -18,0 z M 378,432 l 18,0 0,18 -18,0 z M 396,432 l 18,0 0,18 -18,0 z M 450,432 l 18,0 0,18 -18,0 z M 18,450 l 18,0 0,18 -18,0 z M 36,450 l 18,0 0,18 -18,0 z M 54,450 l 18,0 0,18 -18,0 z M 72,450 l 18,0 0,18 -18,0 z M 90,450 l 18,0 0,18 -18,0 z M 108,450 l 18,0 0,18 -18,0 z M 126,450 l 18,0 0,18 -18,0 z M 162,450 l 18,0 0,18 -18,0 z M 180,450 l 18,0 0,18 -18,0 z M 216,450 l 18,0 0,18 -18,0 z M 270,450 l 18,0 0,18 -18,0 z M 324,450 l 18,0 0,18 -18,0 z M 342,450 l 18,0 0,18 -18,0 z M 360,450 l 18,0 0,18 -18,0 z M 378,450 l 18,0 0,18 -18,0 z M 396,450 l 18,0 0,18 -18,0 z M 414,450 l 18,0 0,18 -18,0 z M 432,450 l 18,0 0,18 -18,0 z M 450,450 l 18,0 0,18 -18,0 z " />
	</g>
</svg>
